<?xml version="1.0" encoding="UTF-8"?>
<svg xmlns="http://www.w3.org/2000/svg" xmlns:xlink="http://www.w3.org/1999/xlink" width="24px" height="24px" viewBox="0 0 24 24" version="1.1">
<g id="surface1">
<path style=" stroke:none;fill-rule:nonzero;fill:rgb(94.117647%,78.039216%,57.254902%);fill-opacity:1;" d="M 9.695312 15.851562 L 9.652344 17.46875 L 10.925781 17.816406 C 11.667969 18.015625 12.453125 18.011719 13.191406 17.796875 L 14.335938 17.46875 L 14.292969 15.851562 Z M 9.695312 15.851562 "/>
<path style=" stroke:none;fill-rule:nonzero;fill:rgb(49.803922%,54.509804%,29.411765%);fill-opacity:1;" d="M 14.488281 10.617188 C 14.382812 10.148438 14.398438 9.664062 14.527344 9.203125 L 13.015625 8.8125 L 10.972656 8.8125 L 9.46875 9.195312 L 9.480469 9.230469 C 9.59375 9.671875 9.605469 10.132812 9.507812 10.578125 L 9.234375 12.472656 L 9.34375 13.601562 L 9.609375 15.851562 L 14.378906 15.851562 L 14.644531 13.601562 L 14.757812 12.433594 Z M 14.488281 10.617188 "/>
<path style=" stroke:none;fill-rule:nonzero;fill:rgb(44.705882%,49.019608%,26.27451%);fill-opacity:1;" d="M 13.015625 8.8125 L 10.972656 8.8125 L 9.46875 9.195312 L 9.480469 9.230469 C 9.527344 9.402344 9.554688 9.582031 9.566406 9.761719 L 10.972656 9.410156 L 13.015625 9.410156 L 14.429688 9.761719 C 14.441406 9.574219 14.476562 9.386719 14.527344 9.203125 Z M 13.015625 8.8125 "/>
<path style=" stroke:none;fill-rule:nonzero;fill:rgb(43.921569%,29.803922%,5.882353%);fill-opacity:1;" d="M 11.992188 2.433594 C 10.785156 2.433594 9.804688 3.585938 9.804688 5.007812 C 9.804688 5.1875 9.820312 5.375 9.851562 5.566406 C 10.070312 4.421875 10.953125 3.578125 11.992188 3.578125 C 13.035156 3.578125 13.921875 4.355469 14.144531 5.5 C 14.167969 5.332031 14.183594 5.167969 14.183594 5.007812 C 14.183594 3.585938 13.203125 2.433594 11.992188 2.433594 Z M 11.992188 2.433594 "/>
<path style=" stroke:none;fill-rule:nonzero;fill:rgb(94.117647%,78.039216%,57.254902%);fill-opacity:1;" d="M 10.972656 7.0625 L 10.972656 9.019531 C 10.972656 9.582031 11.429688 10.039062 11.992188 10.039062 C 12.558594 10.039062 13.015625 9.582031 13.015625 9.019531 L 13.015625 7.0625 Z M 10.972656 7.0625 "/>
<path style=" stroke:none;fill-rule:nonzero;fill:rgb(43.921569%,29.803922%,5.882353%);fill-opacity:1;" d="M 10.71875 2.914062 C 11.078125 2.613281 11.519531 2.433594 11.992188 2.433594 C 12.46875 2.433594 12.914062 2.613281 13.273438 2.917969 C 13.292969 2.828125 13.328125 2.722656 13.328125 2.625 C 13.328125 1.890625 12.730469 1.292969 11.992188 1.292969 C 11.257812 1.292969 10.660156 1.890625 10.660156 2.625 C 10.660156 2.730469 10.695312 2.816406 10.71875 2.914062 Z M 10.71875 2.914062 "/>
<path style=" stroke:none;fill-rule:nonzero;fill:rgb(96.078431%,82.745098%,65.098039%);fill-opacity:1;" d="M 11.992188 3.578125 C 10.953125 3.578125 10.070312 4.421875 9.851562 5.566406 C 10.058594 6.859375 10.9375 8.242188 11.992188 8.242188 C 13.066406 8.242188 13.957031 6.8125 14.144531 5.5 C 13.921875 4.355469 13.035156 3.578125 11.992188 3.578125 Z M 11.992188 3.578125 "/>
<path style=" stroke:none;fill-rule:nonzero;fill:rgb(36.862745%,25.098039%,5.098039%);fill-opacity:1;" d="M 11.136719 2.640625 C 11.117188 2.648438 11.09375 2.660156 11.070312 2.671875 C 10.820312 3.179688 10.777344 3.679688 10.78125 4 C 10.796875 3.988281 10.8125 3.980469 10.824219 3.96875 C 10.824219 3.640625 10.875 3.140625 11.136719 2.640625 Z M 11.136719 2.640625 "/>
<path style=" stroke:none;fill-rule:nonzero;fill:rgb(36.862745%,25.098039%,5.098039%);fill-opacity:1;" d="M 11.316406 2.5625 C 11.300781 2.566406 11.285156 2.574219 11.269531 2.578125 C 11.167969 3.042969 11.199219 3.464844 11.238281 3.730469 C 11.253906 3.726562 11.265625 3.722656 11.28125 3.714844 C 11.238281 3.445312 11.210938 3.023438 11.316406 2.5625 Z M 11.316406 2.5625 "/>
<path style=" stroke:none;fill-rule:nonzero;fill:rgb(36.862745%,25.098039%,5.098039%);fill-opacity:1;" d="M 12.867188 2.648438 C 13.125 3.054688 13.417969 3.636719 13.457031 4.1875 C 13.46875 4.199219 13.480469 4.210938 13.492188 4.222656 C 13.496094 4.21875 13.5 4.210938 13.5 4.207031 C 13.472656 3.667969 13.195312 3.101562 12.945312 2.6875 C 12.917969 2.675781 12.894531 2.664062 12.867188 2.648438 Z M 12.867188 2.648438 "/>
<path style=" stroke:none;fill-rule:nonzero;fill:rgb(36.862745%,25.098039%,5.098039%);fill-opacity:1;" d="M 12.914062 3.796875 C 12.929688 3.804688 12.945312 3.8125 12.964844 3.824219 C 12.960938 3.816406 12.960938 3.8125 12.960938 3.804688 C 12.867188 3.339844 12.535156 2.785156 12.324219 2.464844 C 12.304688 2.460938 12.285156 2.457031 12.265625 2.457031 C 12.472656 2.761719 12.816406 3.328125 12.914062 3.796875 Z M 12.914062 3.796875 "/>
<path style=" stroke:none;fill-rule:nonzero;fill:rgb(36.862745%,25.098039%,5.098039%);fill-opacity:1;" d="M 13.273438 2.917969 C 13.285156 2.863281 13.300781 2.804688 13.3125 2.742188 C 12.945312 2.414062 12.488281 2.222656 11.992188 2.222656 C 11.496094 2.222656 11.039062 2.414062 10.675781 2.742188 C 10.6875 2.796875 10.703125 2.855469 10.71875 2.914062 C 11.078125 2.613281 11.519531 2.433594 11.992188 2.433594 C 12.46875 2.433594 12.914062 2.617188 13.273438 2.917969 Z M 13.273438 2.917969 "/>
<path style=" stroke:none;fill-rule:nonzero;fill:rgb(25.098039%,21.568627%,25.882353%);fill-opacity:1;" d="M 9.675781 17.375 C 9.675781 17.375 11.09375 17.871094 12.042969 17.859375 C 12.992188 17.847656 14.332031 17.375 14.332031 17.375 L 16.644531 19.078125 L 12.027344 19.722656 L 7.605469 18.988281 Z M 9.675781 17.375 "/>
<path style=" stroke:none;fill-rule:nonzero;fill:rgb(31.764706%,27.45098%,32.941176%);fill-opacity:1;" d="M 20.496094 22.335938 C 21.304688 22.082031 22.136719 21.570312 22.707031 21.171875 C 23.144531 20.867188 23.324219 20.304688 23.144531 19.804688 C 23.03125 19.492188 22.792969 19.238281 22.488281 19.109375 L 21.464844 18.679688 C 21.28125 18.601562 21.085938 18.574219 20.886719 18.59375 L 15.492188 19.140625 L 11.9375 19.574219 L 8.488281 19.066406 L 3.105469 18.589844 C 2.914062 18.570312 2.71875 18.601562 2.542969 18.675781 L 1.511719 19.109375 C 1.207031 19.238281 0.96875 19.492188 0.855469 19.804688 C 0.675781 20.304688 0.855469 20.867188 1.292969 21.171875 C 1.75 21.492188 2.828125 22.054688 3.472656 22.328125 Z M 20.496094 22.335938 "/>
<path style=" stroke:none;fill-rule:nonzero;fill:rgb(25.098039%,21.568627%,25.882353%);fill-opacity:1;" d="M 21.359375 19.398438 C 21.105469 19.339844 19.019531 19.78125 18.464844 19.851562 C 18.117188 19.894531 17 20.269531 16.214844 20.539062 C 15.878906 20.65625 15.550781 20.339844 15.65625 20 L 15.9375 19.09375 L 15.492188 19.140625 L 14.945312 21.375 L 16.398438 20.65625 C 17.210938 20.265625 18.082031 20.015625 18.980469 19.921875 L 19.984375 19.8125 C 19.984375 19.8125 20.464844 19.71875 20.875 19.660156 C 21.289062 19.601562 21.609375 19.460938 21.359375 19.398438 Z M 21.359375 19.398438 "/>
<path style=" stroke:none;fill-rule:nonzero;fill:rgb(25.098039%,21.568627%,25.882353%);fill-opacity:1;" d="M 4.007812 19.8125 L 5.015625 19.921875 C 5.910156 20.015625 6.78125 20.265625 7.59375 20.65625 L 9.046875 21.378906 L 8.5 19.140625 L 8.484375 19.066406 L 8.050781 19.027344 L 8.335938 20 C 8.441406 20.339844 8.113281 20.65625 7.777344 20.539062 C 6.992188 20.269531 5.875 19.894531 5.527344 19.851562 C 4.976562 19.78125 2.886719 19.339844 2.632812 19.398438 C 2.382812 19.460938 2.703125 19.601562 3.117188 19.660156 C 3.527344 19.722656 4.007812 19.8125 4.007812 19.8125 Z M 4.007812 19.8125 "/>
<path style=" stroke:none;fill-rule:nonzero;fill:rgb(25.098039%,21.568627%,25.882353%);fill-opacity:1;" d="M 12.808594 21.84375 C 12.714844 21.84375 12.628906 21.789062 12.585938 21.707031 C 12.523438 21.578125 12.582031 21.421875 12.714844 21.367188 L 13.59375 21 L 13.886719 21 C 13.984375 21 14.066406 20.925781 14.074219 20.828125 C 14.074219 20.828125 14.132812 20.203125 14.21875 19.292969 L 13.863281 19.335938 C 13.871094 19.558594 13.875 19.820312 13.875 20.101562 C 13.875 20.867188 13.632812 20.644531 13.273438 20.886719 C 12.910156 21.128906 12.527344 20.484375 12.125 20.34375 C 11.722656 20.203125 11.363281 20.644531 10.960938 20.886719 C 10.558594 21.128906 10.5 20.707031 10.21875 20.523438 C 10.023438 20.398438 10.050781 19.707031 10.085938 19.300781 L 9.777344 19.253906 C 9.863281 20.183594 9.925781 20.828125 9.925781 20.828125 C 9.933594 20.925781 10.011719 21 10.113281 21 L 10.40625 21 L 11.285156 21.367188 C 11.417969 21.421875 11.476562 21.578125 11.414062 21.707031 C 11.371094 21.789062 11.285156 21.84375 11.191406 21.84375 L 10.40625 21.84375 L 10.835938 22.195312 L 12.84375 21.84375 Z M 12.808594 21.84375 "/>
<path style=" stroke:none;fill-rule:nonzero;fill:rgb(96.078431%,82.745098%,65.098039%);fill-opacity:1;" d="M 20.6875 20.84375 C 20.53125 20.3125 19.984375 19.8125 19.984375 19.8125 L 18.980469 19.921875 C 18.082031 20.015625 17.210938 20.265625 16.398438 20.65625 L 14.089844 21.800781 L 13.03125 21.28125 L 12.523438 20.84375 C 12.429688 20.765625 12.304688 20.734375 12.1875 20.765625 L 12 20.8125 L 12 22.125 L 12.375 22.6875 L 13.210938 23.230469 C 13.210938 23.230469 18.75 22.78125 20.25 22.40625 C 20.332031 22.386719 20.414062 22.363281 20.496094 22.335938 L 20.53125 22.324219 C 20.53125 22.324219 20.84375 21.375 20.6875 20.84375 Z M 20.6875 20.84375 "/>
<path style=" stroke:none;fill-rule:nonzero;fill:rgb(94.117647%,78.039216%,57.254902%);fill-opacity:1;" d="M 16.484375 21.769531 C 16.484375 21.417969 16.335938 21.089844 16.085938 20.8125 L 14.089844 21.800781 L 13.03125 21.28125 L 12.523438 20.84375 C 12.429688 20.765625 12.304688 20.734375 12.1875 20.765625 L 12 20.8125 L 12 22.125 L 12.375 22.6875 L 13.210938 23.230469 C 13.210938 23.230469 14.378906 23.136719 15.785156 22.996094 C 16.214844 22.679688 16.484375 22.246094 16.484375 21.769531 Z M 16.484375 21.769531 "/>
<path style=" stroke:none;fill-rule:nonzero;fill:rgb(96.078431%,82.745098%,65.098039%);fill-opacity:1;" d="M 3.304688 20.84375 C 3.460938 20.3125 4.007812 19.8125 4.007812 19.8125 L 5.015625 19.921875 C 5.910156 20.015625 6.78125 20.265625 7.59375 20.65625 L 9.902344 21.800781 L 10.960938 21.28125 L 11.46875 20.84375 C 11.5625 20.765625 11.6875 20.734375 11.808594 20.765625 L 11.992188 20.8125 L 11.992188 22.125 L 11.617188 22.6875 L 10.78125 23.230469 C 10.78125 23.230469 5.242188 22.78125 3.742188 22.40625 C 3.660156 22.386719 3.554688 22.355469 3.472656 22.328125 C 3.390625 22.304688 3.148438 21.375 3.304688 20.84375 Z M 3.304688 20.84375 "/>
<path style=" stroke:none;fill-rule:nonzero;fill:rgb(94.117647%,78.039216%,57.254902%);fill-opacity:1;" d="M 7.511719 21.769531 C 7.511719 21.417969 7.65625 21.089844 7.910156 20.8125 L 9.902344 21.800781 L 10.960938 21.28125 L 11.46875 20.84375 C 11.5625 20.765625 11.6875 20.734375 11.808594 20.765625 L 11.992188 20.8125 L 11.992188 22.125 L 11.617188 22.6875 L 10.78125 23.230469 C 10.78125 23.230469 9.617188 23.136719 8.210938 22.996094 C 7.777344 22.679688 7.511719 22.246094 7.511719 21.769531 Z M 7.511719 21.769531 "/>
<path style=" stroke:none;fill-rule:nonzero;fill:rgb(96.078431%,82.745098%,65.098039%);fill-opacity:1;" d="M 11.644531 22.863281 L 10.40625 21.84375 L 11.191406 21.84375 C 11.285156 21.84375 11.371094 21.789062 11.414062 21.707031 C 11.476562 21.578125 11.417969 21.421875 11.285156 21.367188 L 10.40625 21 L 10.113281 21 C 10.015625 21 9.933594 20.925781 9.925781 20.828125 C 9.925781 20.828125 9.164062 12.804688 9.234375 12.472656 L 9.507812 10.578125 C 9.605469 10.132812 9.59375 9.671875 9.480469 9.230469 L 9.46875 9.1875 L 8.433594 9.492188 C 8.078125 9.597656 7.792969 9.851562 7.652344 10.191406 L 7.539062 10.464844 C 7.453125 10.671875 7.425781 10.898438 7.457031 11.121094 L 8.34375 18.46875 L 9.261719 22.238281 C 9.273438 22.285156 9.304688 22.328125 9.347656 22.351562 L 11.203125 23.484375 C 11.34375 23.570312 11.523438 23.554688 11.648438 23.449219 C 11.828125 23.296875 11.828125 23.015625 11.644531 22.863281 Z M 11.644531 22.863281 "/>
<path style=" stroke:none;fill-rule:nonzero;fill:rgb(96.078431%,82.745098%,65.098039%);fill-opacity:1;" d="M 16.460938 10.464844 L 16.347656 10.191406 C 16.207031 9.851562 15.921875 9.597656 15.566406 9.492188 L 14.53125 9.1875 C 14.398438 9.652344 14.382812 10.144531 14.488281 10.617188 L 14.757812 12.433594 C 14.835938 12.769531 14.074219 20.828125 14.074219 20.828125 C 14.066406 20.925781 13.984375 21 13.886719 21 L 13.59375 21 L 12.714844 21.367188 C 12.582031 21.421875 12.523438 21.578125 12.585938 21.707031 C 12.628906 21.789062 12.714844 21.84375 12.808594 21.84375 L 13.59375 21.84375 L 12.355469 22.863281 C 12.171875 23.015625 12.171875 23.296875 12.351562 23.449219 C 12.476562 23.554688 12.65625 23.566406 12.796875 23.484375 L 14.652344 22.351562 C 14.695312 22.328125 14.726562 22.285156 14.738281 22.238281 L 15.65625 18.46875 L 16.542969 11.121094 C 16.574219 10.898438 16.546875 10.671875 16.460938 10.464844 Z M 16.460938 10.464844 "/>
</g>
</svg>
